#!OML:ASF H:\Not Pregnant\Project 1\Capture day 1\Session 1\non-pregnant.ASF
:FULLY-SPECIFIED
:DEGREES
823
root -1.9212 16.2655 -2.15386 12.6611 4.43782 360.688
lowerback 0.0988651 -0.220734 -1.53068
upperback -8.69169 -0.474972 -1.43637
thorax -9.20661 -0.177017 -0.627526
lowerneck 11.9868 -11.6072 -30.1588
upperneck -1.84269 -21.0469 39.7577
head 5.98842 -11.8989 18.5108
rclavicle 1.19271e-015 3.18055e-014
rhumerus -29.4068 11.0936 -80.9973
rradius 65.9227
rwrist -15.2922
rhand -13.6144 -31.2078
rfingers 7.12502
rthumb 12.5009 -60.8139
lclavicle 1.19271e-015 3.18055e-014
lhumerus -34.3886 -16.4112 75.6395
lradius 72.8806
lwrist 57.9003
lhand -20.5152 14.0498
lfingers 7.12502
lthumb 5.84242 43.9492
rfemur -46.1645 1.993 17.8946
rtibia 29.7096
rfoot -10.7026 0.724556
rtoes -31.7988
lfemur -15.0367 4.58001 -28.6743
ltibia 27.3323
lfoot -21.326 -12.3031
ltoes -9.56186
824
root -1.91583 16.2656 -2.01639 12.7498 4.64875 360.7
lowerback -0.0125137 -0.259559 -1.61799
upperback -8.71178 -0.527168 -1.41691
thorax -9.16217 -0.194964 -0.55437
lowerneck 12.0274 -11.6199 -30.15
upperneck -1.84653 -21.0715 39.7462
head 5.98612 -11.9138 18.4995
rclavicle -2.03754e-015 2.18663e-014
rhumerus -29.417 11.0628 -80.947
rradius 65.93
rwrist -15.3156
rhand -13.5722 -31.2228
rfingers 7.12502
rthumb 12.5416 -60.8264
lclavicle -2.03754e-015 2.18663e-014
lhumerus -34.3154 -16.4323 75.6869
lradius 72.822
lwrist 57.8865
lhand -20.49 14.0742
lfingers 7.12502
lthumb 5.86675 43.973
rfemur -46.2145 1.81929 18.2134
rtibia 27.7215
rfoot -10.5442 1.41626
rtoes -32.2478
lfemur -14.2514 4.51376 -28.5875
ltibia 26.6942
lfoot -21.2736 -12.4635
ltoes -9.94563
825
root -1.90986 16.2647 -1.87717 12.8438 4.85421 360.725
lowerback -0.151848 -0.297674 -1.70904
upperback -8.73307 -0.577904 -1.40187
thorax -9.10243 -0.212224 -0.484189
lowerneck 12.0601 -11.6328 -30.146
upperneck -1.83179 -21.0994 39.7268
head 5.99095 -11.9289 18.484
rclavicle -2.98177e-016 -7.95139e-015
rhumerus -29.4253 11.0394 -80.9
rradius 65.9274
rwrist -15.3418
rhand -13.5229 -31.2254
rfingers 7.12502
rthumb 12.5891 -60.8261
lclavicle -2.98177e-016 -7.95139e-015
lhumerus -34.2474 -16.4421 75.7355
lradius 72.7541
lwrist 57.872
lhand -20.4565 14.0995
lfingers 7.12502
lthumb 5.89912 43.9974
rfemur -46.2824 1.5019 18.6386
rtibia 25.9182
rfoot -10.4271 2.17852
rtoes -32.5388
lfemur -13.4587 4.45865 -28.5121
ltibia 26.0443
lfoot -21.2128 -12.6429
ltoes -10.3916
826
root -1.90326 16.2627 -1.73654 12.9434 5.05747 360.757
lowerback -0.311662 -0.337942 -1.79835
upperback -8.75771 -0.630855 -1.38991
thorax -9.03422 -0.230951 -0.418383
lowerneck 12.0824 -11.6444 -30.1434
upperneck -1.794 -21.1276 39.6962
head 6.0023 -11.9422 18.4628
rclavicle 1.61016e-014 -1.31198e-014
rhumerus -29.4325 11.022 -80.8589
rradius 65.913
rwrist -15.3648
rhand -13.4775 -31.226
rfingers 7.12502
rthumb 12.6328 -60.824
lclavicle 1.61016e-014 -1.31198e-014
lhumerus -34.1924 -16.4356 75.783
lradius 72.6839
lwrist 57.8529
lhand -20.4214 14.137
lfingers 7.12502
lthumb 5.93299 44.0339
rfemur -46.3765 1.00757 19.207
rtibia 24.3232
rfoot -10.371 3.03681
rtoes -32.6688
lfemur -12.6614 4.40685 -28.4437
ltibia 25.3829
lfoot -21.133 -12.841
ltoes -10.8698
827
root -1.89614 16.2598 -1.59461 13.0441 5.2584 360.797
lowerback -0.480978 -0.379964 -1.88565
upperback -8.78851 -0.685818 -1.38105
thorax -8.96722 -0.251011 -0.357185
lowerneck 12.1014 -11.6525 -30.1448
upperneck -1.73751 -21.1547 39.6567
head 6.01779 -11.9538 18.4387
rclavicle -6.95746e-016 2.10712e-014
rhumerus -29.443 11.0112 -80.8229
rradius 65.8885
rwrist -15.3758
rhand -13.4126 -31.2213
rfingers 7.12502
rthumb 12.6954 -60.8154
lclavicle -6.95746e-016 2.10712e-014
lhumerus -34.159 -16.4181 75.8326
lradius 72.6135
lwrist 57.8317
lhand -20.385 14.1763
lfingers 7.12502
lthumb 5.96813 44.0722
rfemur -46.4963 0.327237 19.9354
rtibia 22.9505
rfoot -10.3748 4.004
rtoes -32.6264
lfemur -11.8557 4.35444 -28.3812
ltibia 24.713
lfoot -21.0428 -13.0436
ltoes -11.4216
828
root -1.88851 16.2556 -1.45146 13.1447 5.45589 360.85
lowerback -0.655776 -0.42502 -1.9743
upperback -8.82341 -0.744831 -1.37651
thorax -8.9015 -0.273207 -0.299832
lowerneck 12.109 -11.6586 -30.1497
upperneck -1.65854 -21.1813 39.6085
head 6.04041 -11.9633 18.4109
rclavicle 1.2921e-015 -5.1684e-015
rhumerus -29.4527 11.0066 -80.7926
rradius 65.8552
rwrist -15.3738
rhand -13.3334 -31.2205
rfingers 7.12502
rthumb 12.7718 -60.8098
lclavicle 1.2921e-015 -5.1684e-015
lhumerus -34.1457 -16.3852 75.8805
lradius 72.5454
lwrist 57.8073
lhand -20.3461 14.2237
lfingers 7.12502
lthumb 6.00566 44.1186
rfemur -46.641 -0.528669 20.8157
rtibia 21.8015
rfoot -10.4178 5.07392
rtoes -32.3985
lfemur -11.0453 4.29483 -28.33
ltibia 24.0433
lfoot -20.9288 -13.2552
ltoes -11.9903
829
root -1.88052 16.2499 -1.30706 13.2367 5.65006 360.909
lowerback -0.823509 -0.471321 -2.05964
upperback -8.86377 -0.805649 -1.37547
thorax -8.84602 -0.296671 -0.248182
lowerneck 12.1157 -11.6628 -30.1522
upperneck -1.56339 -21.2075 39.5488
head 6.06486 -11.9716 18.3773
rclavicle 1.09829e-014 -1.47101e-014
rhumerus -29.4674 11.0001 -80.7694
rradius 65.8102
rwrist -15.3555
rhand -13.2382 -31.2222
rfingers 7.12502
rthumb 12.8636 -60.8058
lclavicle 1.09829e-014 -1.47101e-014
lhumerus -34.1592 -16.3471 75.9284
lradius 72.4839
lwrist 57.7837
lhand -20.3085 14.2805
lfingers 7.12502
lthumb 6.04202 44.1743
rfemur -46.7945 -1.49421 21.809
rtibia 20.8685
rfoot -10.4765 6.17702
rtoes -32.0303
lfemur -10.2253 4.22078 -28.282
ltibia 23.3833
lfoot -20.7991 -13.4624
ltoes -12.5788
830
root -1.87227 16.2421 -1.1613 13.3107 5.83713 360.98
lowerback -0.977286 -0.518144 -2.15136
upperback -8.90551 -0.867966 -1.37921
thorax -8.80025 -0.320573 -0.19809
lowerneck 12.1295 -11.6644 -30.1502
upperneck -1.46231 -21.2312 39.4809
head 6.08638 -11.9787 18.3402
rclavicle 8.44835e-016 2.3059e-014
rhumerus -29.4915 10.9941 -80.755
rradius 65.7658
rwrist -15.3415
rhand -13.1682 -31.2515
rfingers 7.12502
rthumb 12.9311 -60.8308
lclavicle 8.44835e-016 2.3059e-014
lhumerus -34.2014 -16.3056 75.9761
lradius 72.434
lwrist 57.7625
lhand -20.2816 14.3379
lfingers 7.12502
lthumb 6.06794 44.231
rfemur -46.9331 -2.48322 22.8362
rtibia 20.1352
rfoot -10.5269 7.22947
rtoes -31.5917
lfemur -9.38978 4.1283 -28.2442
ltibia 22.7451
lfoot -20.653 -13.6604
ltoes -13.1675
831
root -1.86381 16.2321 -1.01417 13.3647 6.01411 361.065
lowerback -1.11432 -0.563499 -2.25092
upperback -8.94958 -0.929401 -1.38922
thorax -8.76691 -0.343645 -0.150436
lowerneck 12.1577 -11.6623 -30.1394
upperneck -1.35993 -21.2511 39.4069
head 6.10148 -11.985 18.3007
rclavicle -1.49089e-016 -6.75868e-015
rhumerus -29.5266 10.986 -80.7511
rradius 65.7209
rwrist -15.3423
rhand -13.1314 -31.3056
rfingers 7.12502
rthumb 12.9666 -60.8827
lclavicle -1.49089e-016 -6.75868e-015
lhumerus -34.2756 -16.2683 76.0233
lradius 72.3978
lwrist 57.7445
lhand -20.2706 14.397
lfingers 7.12502
lthumb 6.07857 44.2898
rfemur -47.0298 -3.37707 23.7933
rtibia 19.5835
rfoot -10.5542 8.11518
rtoes -31.1536
lfemur -8.54239 4.01547 -28.218
ltibia 22.1416
lfoot -20.492 -13.8441
ltoes -13.7492
